<svg width="196" height="79" viewBox="0 0 196 79" fill="none" xmlns="http://www.w3.org/2000/svg">
<path d="M179.908 64.4253L179.942 63.2571C179.989 61.6021 180.348 60.2487 181.019 59.1967C181.722 58.1457 182.82 57.285 184.312 56.6145L185.139 56.2492C186.599 55.6103 187.724 54.9128 188.514 54.1566C189.304 53.4005 189.718 52.3734 189.755 51.0754C189.782 50.1344 189.565 49.3323 189.104 48.6691C188.675 47.9745 188.05 47.4364 187.229 47.0549C186.407 46.6734 185.436 46.4661 184.316 46.433C183.164 46.399 182.118 46.563 181.179 46.925C180.272 47.288 179.535 47.8508 178.969 48.6135C178.435 49.3772 178.151 50.3432 178.117 51.5114L178.086 52.5822L171.846 52.398L171.874 51.4245C171.938 49.1855 172.538 47.2708 173.672 45.6804C174.807 44.09 176.314 42.9004 178.195 42.1115C180.076 41.2901 182.168 40.9134 184.472 40.9814C186.744 41.0485 188.748 41.5299 190.484 42.4255C192.252 43.3221 193.626 44.5318 194.608 46.0548C195.589 47.5777 196.051 49.3126 195.995 51.2596C195.94 53.2066 195.542 54.8025 194.801 56.0473C194.062 57.2596 193.137 58.2391 192.027 58.9858C190.949 59.7009 189.843 60.3178 188.707 60.8364L187.88 61.2017C187.296 61.4443 186.887 61.757 186.652 62.1398C186.417 62.4901 186.29 63.0222 186.269 63.7361L186.244 64.6123L179.908 64.4253Z" fill="#545F71"/>
<path d="M182.927 76.4011C181.647 76.3633 180.572 75.9093 179.7 75.0392C178.861 74.1375 178.461 73.0053 178.5 71.6424C178.539 70.2795 179.003 69.1889 179.891 68.3708C180.812 67.5211 181.913 67.1151 183.193 67.1529C184.505 67.1916 185.58 67.6618 186.419 68.5634C187.259 69.4326 187.659 70.5487 187.62 71.9116C187.581 73.2745 187.117 74.3812 186.228 75.2319C185.34 76.0501 184.24 76.4398 182.927 76.4011Z" fill="#545F71"/>
<path d="M174.955 52.908C176.678 52.9542 178.08 52.7968 178.086 52.5563C178.092 52.3159 176.701 52.0836 174.977 52.0374C173.254 51.9912 171.852 52.1487 171.846 52.3891C171.84 52.6295 173.231 52.8618 174.955 52.908Z" fill="#545F71"/>
<path d="M183.064 64.9581C184.814 65.005 186.237 64.8482 186.244 64.6077C186.25 64.3673 184.837 64.1344 183.087 64.0875C181.338 64.0406 179.914 64.1975 179.908 64.4379C179.902 64.6783 181.315 64.9112 183.064 64.9581Z" fill="#545F71"/>
<path d="M24.4964 50.1355L24.4966 46.4574L28.0477 46.4576L28.0489 26.9943L24.4978 26.994L24.498 23.3159L37.9091 23.3168C39.4957 23.3169 40.8809 23.5979 42.0646 24.1599C43.2482 24.6964 44.1674 25.4755 44.8222 26.4972C45.5021 27.4934 45.842 28.6812 45.842 30.0605L45.8419 30.4436C45.8419 31.6697 45.6151 32.6786 45.1617 33.4704C44.7084 34.2621 44.1543 34.8751 43.4994 35.3093C42.8698 35.7435 42.2653 36.05 41.686 36.2287L41.686 36.8417C42.2652 36.995 42.8823 37.3016 43.537 37.7614C44.217 38.1956 44.7836 38.8087 45.2369 39.6005C45.7154 40.3924 45.9546 41.4269 45.9545 42.704L45.9545 43.0871C45.9544 44.5686 45.6143 45.8329 44.9343 46.8801C44.2542 47.9273 43.3097 48.7318 42.1008 49.2937C40.9171 49.8556 39.5444 50.1364 37.983 50.1363L24.4964 50.1355ZM32.1654 46.3812L37.4921 46.3816C38.8521 46.3817 39.9225 46.0497 40.7033 45.3856C41.484 44.7216 41.8745 43.8021 41.8745 42.6271L41.8746 42.2823C41.8746 41.1073 41.4843 40.1878 40.7036 39.5236C39.9481 38.8595 38.8778 38.5274 37.4926 38.5273L32.1659 38.5269L32.1654 46.3812ZM32.1662 34.7339L37.4928 34.7342C38.7773 34.7343 39.8099 34.4151 40.5906 33.7766C41.3714 33.1125 41.7618 32.2186 41.7619 31.0947L41.7619 30.7116C41.762 29.5877 41.3717 28.7064 40.591 28.0678C39.8355 27.4037 38.8029 27.0716 37.4933 27.0715L32.1666 27.0711L32.1662 34.7339Z" fill="#545F71"/>
<path d="M59.3683 50.6741C57.5046 50.674 55.8424 50.2907 54.3817 49.5244C52.9462 48.7325 51.813 47.6085 50.982 46.1526C50.1509 44.6966 49.7355 42.9724 49.7356 40.9801L49.7357 40.4054C49.7358 38.4131 50.1514 36.7018 50.9826 35.2715C51.8138 33.8156 52.9472 32.6918 54.3828 31.9001C55.8436 31.1084 57.5059 30.7126 59.3696 30.7127C61.2332 30.7128 62.8954 31.1088 64.3561 31.9007C65.8168 32.6926 66.9627 33.8166 67.7937 35.2725C68.6247 36.703 69.0401 38.4143 69.04 40.4066L69.04 40.9814C69.0399 42.9737 68.6242 44.6978 67.793 46.1536C66.9618 47.6095 65.8158 48.7333 64.355 49.525C62.8943 50.2912 61.232 50.6742 59.3683 50.6741ZM59.3685 47.1492C61.0811 47.1493 62.4663 46.6003 63.5242 45.502C64.6072 44.3782 65.1488 42.8329 65.1489 40.8662L65.1489 40.5213C65.149 38.5546 64.6202 37.022 63.5625 35.9236C62.5048 34.7997 61.1071 34.2376 59.3693 34.2375C57.6819 34.2374 56.2967 34.7993 55.2137 35.9231C54.1558 37.0213 53.6269 38.5538 53.6267 40.5206L53.6267 40.8654C53.6266 42.8322 54.1554 44.3776 55.2131 45.5015C56.296 46.5999 57.6811 47.1491 59.3685 47.1492Z" fill="#545F71"/>
<path d="M73.8838 50.1386L73.885 31.25L77.7005 31.2502L77.7004 33.4724L78.3048 33.4725C78.6071 32.6807 79.0856 32.106 79.7405 31.7484C80.4205 31.3653 81.2516 31.1738 82.2338 31.1739L84.4627 31.174L84.4625 34.7372L82.0825 34.7371C80.8232 34.737 79.7906 35.0945 78.9847 35.8096C78.1787 36.4992 77.7757 37.572 77.7756 39.0279L77.7749 50.1389L73.8838 50.1386Z" fill="#545F71"/>
<path d="M93.7566 50.6763C92.4218 50.6762 91.2255 50.4462 90.1677 49.9864C89.1352 49.5266 88.3041 48.8496 87.6745 47.9556C87.0702 47.0616 86.768 45.976 86.7681 44.6989C86.7682 43.3962 87.0704 42.3235 87.6749 41.4806C88.3046 40.6122 89.1484 39.9609 90.2062 39.5268C91.2891 39.0926 92.5106 38.8756 93.8706 38.8757L99.5373 38.876L99.5374 37.65C99.5374 36.5517 99.2101 35.6704 98.5553 35.0063C97.9005 34.3421 96.8931 34.01 95.5331 34.0099C94.1983 34.0099 93.1783 34.3291 92.4731 34.9676C91.7679 35.6061 91.3019 36.4362 91.0752 37.4579L87.4486 36.2699C87.7509 35.2483 88.2295 34.3288 88.8843 33.5114C89.5644 32.6686 90.4585 31.9918 91.5667 31.481C92.6748 30.9702 94.0097 30.7149 95.5711 30.715C97.9889 30.7151 99.8903 31.341 101.275 32.5927C102.661 33.8444 103.353 35.6196 103.353 37.9184L103.352 45.6961C103.352 46.4624 103.705 46.8455 104.41 46.8456L105.997 46.8457L105.997 50.1407L103.088 50.1405C102.206 50.1404 101.488 49.9105 100.934 49.4507C100.38 48.9909 100.103 48.3651 100.103 47.5733L100.103 47.4583L99.5367 47.4583C99.3352 47.8414 99.033 48.2884 98.63 48.7992C98.227 49.31 97.6351 49.757 96.8544 50.1401C96.0736 50.4976 95.041 50.6764 93.7566 50.6763ZM94.3234 47.4197C95.8849 47.4198 97.1442 46.9728 98.1013 46.0789C99.0584 45.1594 99.537 43.9079 99.5371 42.3243L99.5371 41.9411L94.0971 41.9408C93.0645 41.9407 92.2334 42.1705 91.6037 42.6303C90.9741 43.0645 90.6592 43.7158 90.6592 44.5842C90.6591 45.4527 90.9865 46.1423 91.6413 46.6532C92.2961 47.1641 93.1901 47.4196 94.3234 47.4197Z" fill="#545F71"/>
<path d="M53.8204 74.0827L53.8216 55.1941L57.6371 55.1944L57.637 57.4165L58.2414 57.4166C58.5437 56.6248 59.0222 56.0501 59.6771 55.6926C60.3571 55.3095 61.1882 55.118 62.1704 55.118L64.3993 55.1182L64.3991 58.6813L62.0191 58.6812C60.7599 58.6811 59.7272 59.0386 58.9213 59.7538C58.1153 60.4434 57.7123 61.5161 57.7122 62.972L57.7115 74.083L53.8204 74.0827Z" fill="#545F71"/>
<path d="M73.6932 74.6204C72.3584 74.6203 71.1621 74.3904 70.1044 73.9305C69.0718 73.4707 68.2407 72.7938 67.6112 71.8997C67.0068 71.0057 66.7046 69.9201 66.7047 68.643C66.7048 67.3404 67.0071 66.2676 67.6116 65.4247C68.2412 64.5563 69.085 63.9051 70.1428 63.4709C71.2258 63.0368 72.4472 62.8197 73.8072 62.8198L79.4739 62.8202L79.474 61.5941C79.474 60.4958 79.1467 59.6146 78.4919 58.9504C77.8371 58.2863 76.8298 57.9542 75.4698 57.9541C74.1349 57.954 73.1149 58.2732 72.4097 58.9117C71.7045 59.5502 71.2385 60.3803 71.0118 61.402L67.3852 60.2141C67.6875 59.1924 68.1661 58.2729 68.8209 57.4556C69.501 56.6127 70.3951 55.9359 71.5033 55.4251C72.6114 54.9144 73.9463 54.659 75.5077 54.6591C77.9255 54.6593 79.8269 55.2852 81.212 56.5368C82.5971 57.7885 83.2896 59.5638 83.2895 61.8626L83.289 69.6402C83.289 70.4065 83.6415 70.7897 84.3467 70.7897L85.9334 70.7898L85.9332 74.0848L83.0243 74.0846C82.1428 74.0846 81.4251 73.8546 80.871 73.3948C80.317 72.935 80.04 72.3092 80.04 71.5174L80.04 71.4025L79.4734 71.4024C79.2719 71.7856 78.9696 72.2325 78.5666 72.7433C78.1636 73.2542 77.5718 73.7011 76.791 74.0842C76.0102 74.4418 74.9776 74.6205 73.6932 74.6204ZM74.2601 71.3638C75.8215 71.3639 77.0808 70.917 78.0379 70.023C78.995 69.1036 79.4736 67.852 79.4737 66.2684L79.4737 65.8853L74.0337 65.8849C73.0011 65.8848 72.17 66.1147 71.5404 66.5744C70.9107 67.0086 70.5959 67.6599 70.5958 68.5283C70.5957 69.3968 70.9231 70.0864 71.5779 70.5973C72.2327 71.1082 73.1267 71.3637 74.2601 71.3638Z" fill="#545F71"/>
<path d="M97.9249 74.622C96.1367 74.6218 94.5123 74.2386 93.0516 73.4722C91.6161 72.7059 90.4703 71.5947 89.6141 70.1387C88.7831 68.6828 88.3676 66.9331 88.3677 64.8897L88.3678 64.3916C88.3679 62.3482 88.7836 60.6114 89.6147 59.181C90.4711 57.7252 91.6171 56.6141 93.0527 55.848C94.5135 55.0562 96.138 54.6604 97.9261 54.6606C99.7142 54.6607 101.238 54.9928 102.497 55.657C103.756 56.3212 104.764 57.2025 105.519 58.3008C106.3 59.3992 106.803 60.6125 107.03 61.9407L103.252 62.7451C103.126 61.9022 102.862 61.1359 102.459 60.4462C102.056 59.7565 101.49 59.2073 100.759 58.7986C100.029 58.3899 99.1096 58.1855 98.0014 58.1854C96.9185 58.1853 95.9362 58.4407 95.0547 58.9515C94.1984 59.4368 93.5184 60.1519 93.0146 61.0969C92.5109 62.0164 92.2589 63.1403 92.2589 64.4685L92.2588 64.8133C92.2588 66.1415 92.5105 67.2782 93.0142 68.2233C93.5178 69.1684 94.1978 69.8836 95.054 70.369C95.9355 70.8543 96.9177 71.097 98.0007 71.0971C99.6377 71.0972 100.884 70.6758 101.741 69.833C102.597 68.9646 103.139 67.8663 103.365 66.5381L107.143 67.4196C106.841 68.7222 106.299 69.9227 105.518 71.021C104.763 72.1192 103.755 73.0004 102.496 73.6644C101.237 74.3029 99.713 74.6221 97.9249 74.622Z" fill="#545F71"/>
<path d="M111.631 74.0865L111.632 47.2669L115.523 47.2672L115.523 57.88L116.127 57.8801C116.379 57.3948 116.732 56.9223 117.185 56.4625C117.663 56.0028 118.281 55.6325 119.036 55.3516C119.817 55.0451 120.799 54.8919 121.983 54.892C123.393 54.8921 124.64 55.2114 125.723 55.8501C126.831 56.4887 127.7 57.3955 128.329 58.5705C128.959 59.72 129.273 61.112 129.273 62.7468L129.273 74.0876L125.382 74.0873L125.382 63.053C125.382 61.4183 124.979 60.2178 124.174 59.4515C123.368 58.6596 122.26 58.2636 120.849 58.2635C119.237 58.2634 117.94 58.7997 116.958 59.8724C116.001 60.9452 115.522 62.5032 115.522 64.5466L115.522 74.0867L111.631 74.0865Z" fill="#545F71"/>
<path d="M140.653 74.6247C139.318 74.6246 138.121 74.3947 137.064 73.9348C136.031 73.475 135.2 72.7981 134.571 71.9041C133.966 71.01 133.664 69.9245 133.664 68.6473C133.664 67.3447 133.966 66.2719 134.571 65.429C135.201 64.5606 136.044 63.9094 137.102 63.4752C138.185 63.0411 139.407 62.824 140.767 62.8241L146.433 62.8245L146.433 61.5985C146.433 60.5001 146.106 59.6189 145.451 58.9547C144.796 58.2906 143.789 57.9585 142.429 57.9584C141.094 57.9583 140.074 58.2775 139.369 58.916C138.664 59.5546 138.198 60.3847 137.971 61.4063L134.345 60.2184C134.647 59.1967 135.125 58.2772 135.78 57.4599C136.46 56.617 137.354 55.9402 138.463 55.4294C139.571 54.9187 140.906 54.6633 142.467 54.6634C144.885 54.6636 146.786 55.2895 148.171 56.5412C149.556 57.7928 150.249 59.5681 150.249 61.8669L150.248 69.6446C150.248 70.4108 150.601 70.794 151.306 70.794L152.893 70.7941L152.893 74.0891L149.984 74.0889C149.102 74.0889 148.384 73.8589 147.83 73.3991C147.276 72.9393 146.999 72.3135 146.999 71.5217L146.999 71.4068L146.433 71.4067C146.231 71.7899 145.929 72.2368 145.526 72.7477C145.123 73.2585 144.531 73.7054 143.75 74.0885C142.97 74.4461 141.937 74.6248 140.653 74.6247ZM141.219 71.3681C142.781 71.3682 144.04 70.9213 144.997 70.0274C145.954 69.1079 146.433 67.8563 146.433 66.2727L146.433 65.8896L140.993 65.8892C139.96 65.8892 139.129 66.119 138.5 66.5787C137.87 67.0129 137.555 67.6642 137.555 68.5326C137.555 69.4011 137.882 70.0908 138.537 70.6016C139.192 71.1125 140.086 71.368 141.219 71.3681Z" fill="#545F71"/>
<path d="M156.676 74.0894L156.677 55.2007L160.493 55.201L160.492 57.4232L161.097 57.4232C161.399 56.6314 161.878 56.0567 162.533 55.6992C163.213 55.3161 164.044 55.1246 165.026 55.1246L167.255 55.1248L167.255 58.688L164.875 58.6878C163.615 58.6877 162.583 59.0452 161.777 59.7604C160.971 60.45 160.568 61.5227 160.568 62.9787L160.567 74.0896L156.676 74.0894Z" fill="#545F71"/>
<path d="M78.8116 62.2451L78.8115 66.4357" stroke="#545F71" stroke-width="0.585492" stroke-linecap="round"/>
<ellipse cx="0.447967" cy="1.83813" rx="0.447967" ry="1.83813" transform="matrix(-1 -6.38261e-05 6.12535e-05 -1 24.9453 26.9917)" fill="#545F71"/>
<ellipse cx="0.447967" cy="1.83414" rx="0.447967" ry="1.83414" transform="matrix(-1 -6.3826e-05 6.12536e-05 -1 24.943 50.1313)" fill="#545F71"/>
<ellipse cx="0.447969" cy="1.78051" rx="0.447969" ry="1.78051" transform="matrix(-1 -6.38258e-05 6.12538e-05 -1 84.9241 34.7363)" fill="#545F71"/>
<ellipse cx="0.447965" cy="1.78051" rx="0.447965" ry="1.78051" transform="matrix(-1 -6.38262e-05 6.12534e-05 -1 64.8272 58.6816)" fill="#545F71"/>
<ellipse cx="0.44797" cy="1.64612" rx="0.44797" ry="1.64612" transform="matrix(-1 -6.38256e-05 6.1254e-05 -1 86.3858 74.0967)" fill="#545F71"/>
<ellipse cx="0.453683" cy="1.91198" rx="0.453683" ry="1.91198" transform="matrix(0.314501 -0.949257 0.946546 0.322568 67.2436 60.6313)" fill="#545F71"/>
<ellipse cx="0.447969" cy="1.52872" rx="0.447969" ry="1.52872" transform="matrix(1 6.39144e-05 -6.134e-05 1 77.6948 62.8389)" fill="#545F71"/>
<ellipse cx="0.454323" cy="1.90922" rx="0.454323" ry="1.90922" transform="matrix(6.12968e-05 -1 1 6.38703e-05 53.8196 55.667)" fill="#545F71"/>
<path d="M145.775 62.2339L145.775 66.4245" stroke="#545F71" stroke-width="0.585492" stroke-linecap="round"/>
<ellipse cx="0.447966" cy="1.64612" rx="0.447966" ry="1.64612" transform="matrix(-1 -6.38261e-05 6.12535e-05 -1 153.349 74.0854)" fill="#545F71"/>
<ellipse cx="0.453682" cy="1.91198" rx="0.453682" ry="1.91198" transform="matrix(0.314501 -0.949257 0.946546 0.322568 134.207 60.6226)" fill="#545F71"/>
<ellipse cx="0.447965" cy="1.52872" rx="0.447965" ry="1.52872" transform="matrix(1 6.3915e-05 -6.13395e-05 1 144.658 62.8271)" fill="#545F71"/>
<ellipse cx="0.454323" cy="1.90922" rx="0.454323" ry="1.90922" transform="matrix(6.12969e-05 -1 1 6.38701e-05 156.667 55.6763)" fill="#545F71"/>
<ellipse cx="0.447973" cy="1.78051" rx="0.447973" ry="1.78051" transform="matrix(-1 -6.38252e-05 6.12544e-05 -1 167.71 58.6885)" fill="#545F71"/>
<ellipse cx="0.454323" cy="1.90922" rx="0.454323" ry="1.90922" transform="matrix(6.12968e-05 -1 1 6.38703e-05 111.631 47.7217)" fill="#545F71"/>
<path d="M116.546 58.2596C116.546 57.3772 116.788 56.8376 116.994 56.6618C117.2 56.4861 116.994 58.2596 116.994 58.2596C116.994 58.2596 117.053 59.8582 116.994 59.8574C116.935 59.8566 116.546 59.142 116.546 58.2596Z" fill="#545F71"/>
<ellipse cx="0.381284" cy="1.92995" rx="0.381284" ry="1.92995" transform="matrix(-0.200269 -0.979741 -0.978603 0.205756 107.101 62.3037)" fill="#545F71"/>
<ellipse cx="0.381201" cy="1.94617" rx="0.381201" ry="1.94617" transform="matrix(-0.23542 0.971894 -0.970335 -0.241763 107.231 67.0791)" fill="#545F71"/>
<path d="M33.3368 33.2769L33.3371 41.0492" stroke="#545F71" stroke-width="1.03627" stroke-linecap="round"/>
<path d="M98.8772 38.2905L98.8771 42.4811" stroke="#545F71" stroke-width="0.585492" stroke-linecap="round"/>
<ellipse cx="0.447966" cy="1.64612" rx="0.447966" ry="1.64612" transform="matrix(-1 -6.38261e-05 6.12535e-05 -1 106.451 50.1421)" fill="#545F71"/>
<ellipse cx="0.453683" cy="1.91198" rx="0.453683" ry="1.91198" transform="matrix(0.314501 -0.949257 0.946546 0.322568 87.3092 36.6772)" fill="#545F71"/>
<ellipse cx="0.447969" cy="1.52872" rx="0.447969" ry="1.52872" transform="matrix(1 6.39144e-05 -6.134e-05 1 97.7607 38.8843)" fill="#545F71"/>
<ellipse cx="0.454323" cy="1.90922" rx="0.454323" ry="1.90922" transform="matrix(6.12968e-05 -1 1 6.38703e-05 73.881 31.7241)" fill="#545F71"/>
<path d="M0.733754 22.4337C0.806132 22.0423 1.29023 21.8205 1.76749 21.9599L15.2901 25.9115C15.6924 26.029 15.9492 26.3657 15.8882 26.6956L15.5962 28.2745C15.5313 28.6254 15.1307 28.8474 14.6897 28.7769L0.845775 26.563C0.381166 26.4887 0.0519987 26.1198 0.120371 25.7502L0.733754 22.4337Z" fill="#545F71"/>
<path d="M8.77321 5.068C9.05082 4.78645 9.57387 4.88057 9.89013 5.26897L18.851 16.2739C19.1177 16.6014 19.1422 17.0262 18.9082 17.2636L17.7881 18.3995C17.5392 18.652 17.0851 18.6058 16.7603 18.2951L6.56679 8.54026C6.22469 8.21288 6.15834 7.71998 6.42058 7.45401L8.77321 5.068Z" fill="#545F71"/>
<path d="M28.1339 0.1718C28.5131 0.0687472 28.9197 0.415494 29.0021 0.912237L31.337 14.9868C31.4065 15.4056 31.2183 15.786 30.8985 15.8729L29.3686 16.2887C29.0285 16.3811 28.658 16.1108 28.5299 15.677L24.5112 2.06C24.3764 1.603 24.5619 1.14249 24.9201 1.04514L28.1339 0.1718Z" fill="#545F71"/>
</svg>
